M48
;Layer_Color=9474304
;FILE_FORMAT=2:4
INCH,TZ
;TYPE=PLATED
T1F00S00C0.0098
T2F00S00C0.0256
T5F00S00C0.0394
T6F00S00C0.1063
%
T01
X7923Y2037
X10640Y1939
X10660Y3950
X10770Y4410
X9931Y4045
X9941Y5497
X9541Y5699
X8691Y5925
X8287Y5020
X8376Y4469
X10080Y6240
X11670Y6050
X11820Y5700
X11800Y5380
X12687Y5384
X13189Y5709
X12990Y6280
X11909Y6329
X12638Y4577
X13340Y7420
X13424Y8844
X13271Y9668
X12400Y8800
X11800
Y8200
X12400
X11080Y9630
X11253Y9898
X11437Y10384
X10340Y9490
X9440Y9470
X9713Y9035
X9705Y8573
X9440Y8380
X8390Y8872
X7970Y9070
X7746Y9327
X8219Y10000
X8296Y10464
X8527Y13650
X9010Y14001
X9837Y13228
X9843Y12933
X10191Y14468
X10975Y15285
X11014Y15669
X10827Y16150
X11299Y16614
X11752Y16339
X12047Y17480
X12480Y17913
X12047Y18346
Y19213
X11614Y18780
Y17913
X11181Y18346
Y19213
X10748Y18780
Y17913
X11181Y17480
X10177Y16978
X9980Y16486
X9439Y16880
X9000Y17840
X8937Y18307
X9813Y18121
X9754Y19624
X9661Y20069
X10266Y19543
X9272Y19193
X10885Y20538
X11093Y20902
X11398Y21378
X11968Y21510
X12264
X12800Y20359
X13022Y19803
X11811Y20108
X12480Y18780
X13445Y18671
X13064Y16858
X12864Y15591
X13334Y14800
X11526Y13955
X7105Y14518
X7293Y16303
X7782Y16791
X7559Y17441
X14022Y17126
X14567Y17608
X14395Y17928
X14055Y18120
X13957Y18671
X13878Y18976
X13888Y19282
X14660Y18661
X14754Y16585
X14495Y15656
X15900Y15398
X15880Y14600
X16083Y16496
X13786Y13280
X14390Y9656
X14222Y9179
Y8006
X13789Y8016
X13583Y25434
X13120Y25189
X13524Y26486
X12205Y27008
X11673
Y26508
X11587Y26157
X10417Y26275
X9967Y26264
X10039Y25434
X10835Y26789
X11095Y27066
X10878Y22862
X11637Y23056
X8819Y22634
T02
X18000Y22250
Y22750
X18500
X19000
X19500
X20000
Y22250
X19500
X19000
X18500
T05
X16500Y1000
X17500
Y2000
X18500
X19500
X20500
Y1000
X19500
X18500
Y3000
X17500
X16500
Y2000
Y4000
Y5000
Y6000
X17500
Y5000
Y4000
X18500
X19500
Y3000
X20500
X21500
Y4000
Y5000
Y6000
X20500
Y5000
Y4000
X19500Y5000
X18500
Y6000
X19500
X22500
Y5000
Y4000
Y3000
X13480Y2945
Y1945
X12480
X11480
Y2945
X12480
X6500Y3000
Y2000
Y1000
X5500
Y2000
X4500
Y1000
X3500
Y2000
Y3000
X2500
Y4000
Y5000
Y6000
X1500
Y5000
Y4000
Y3000
X3500Y4000
X4500
Y3000
X5500
Y4000
Y5000
X4500
Y6000
X3500
Y5000
X5500Y6000
X6500
Y5000
Y4000
Y7000
X5500
X4500
X3500
X2500
Y8000
X1500
Y7000
Y9000
Y10000
X2500
Y11000
Y12000
Y13000
Y14000
Y15000
Y16000
Y17000
X1500
Y18000
Y19000
Y20000
X2500
Y19000
X3500
Y18000
Y17000
Y16000
Y15000
Y14000
Y13000
Y12000
Y11000
Y10000
Y9000
Y8000
X4500
Y9000
Y10000
Y11000
Y12000
Y13000
Y14000
Y15000
Y16000
Y17000
Y18000
Y19000
Y20000
X3500
X5500
X6500
Y19000
X5500
Y18000
Y17000
Y16000
Y15000
Y14000
Y13000
Y12000
Y11000
Y10000
Y9000
Y8000
X6500
Y9000
Y10000
Y11000
Y12000
Y13000
Y14000
Y15000
Y16000
Y17000
Y18000
X2500
X1500Y16000
Y15000
Y14000
Y13000
Y12000
Y11000
X2500Y9000
X12402Y14390
X15500Y13000
Y12000
X16500
Y13000
Y14000
Y15000
Y16000
Y17000
Y18000
Y19000
Y20000
X17500
Y19000
X18500
X19500
X20500
Y18000
X19500
X18500
X17500
Y17000
X18500
X19500
X20500
Y16000
Y15000
X19500
X18500
X17500
Y14000
X18500
X19500
X20500
Y13000
X19500
X18500
X17500
Y12000
Y11000
X16500
Y10000
Y9000
Y8000
Y7000
X17500
X18500
X19500
X20500
X21500
Y8000
Y9000
Y10000
X20500
Y11000
X19500
X18500
Y10000
X17500
Y9000
X18500
X19500
Y10000
X20500Y9000
Y8000
X19500
X18500
X17500
X18500Y12000
X19500
X20500
X21500Y11600
Y12600
Y13600
Y14600
Y15600
Y16600
Y17600
Y18600
Y19600
Y20600
X20500Y20000
X19500
X18500
Y16000
X17500
X19500
X22500
Y15000
Y14000
Y13000
Y12000
Y11000
Y10000
Y9000
Y8000
Y7000
Y17000
Y18000
Y19000
Y20000
X15478Y22638
X14478
X13478
X5350Y22638
X4350
X3350
T06
X22697Y925
X925
X22697Y22697
X925
M30
