%FSLAX43Y43*%
%MOMM*%
G71*
G01*
G75*
G04 Layer_Color=8388736*
%ADD10C,0.175*%
%ADD11C,0.200*%
%ADD12C,0.300*%
%ADD13C,0.175*%
%ADD14C,0.200*%
%ADD15C,0.300*%
%ADD16C,0.180*%
%ADD17C,0.400*%
%ADD18R,1.150X1.400*%
%ADD19R,1.000X0.950*%
%ADD20C,0.400*%
%ADD21R,0.400X1.350*%
%ADD22R,1.000X2.250*%
%ADD23R,0.300X0.850*%
%ADD24R,0.850X0.300*%
%ADD25R,5.200X5.200*%
%ADD26O,0.650X0.250*%
%ADD27O,0.250X0.650*%
%ADD28R,3.300X3.300*%
%ADD29R,1.050X0.650*%
%ADD30R,1.300X0.600*%
%ADD31R,1.200X1.200*%
%ADD32R,1.200X1.350*%
%ADD33R,0.800X0.650*%
%ADD34R,0.500X0.600*%
%ADD35R,0.950X1.000*%
%ADD36R,0.600X0.900*%
%ADD37R,0.650X0.800*%
%ADD38R,0.900X0.600*%
%ADD39C,0.150*%
%ADD40C,0.500*%
%ADD41R,0.900X0.300*%
%ADD42R,1.800X1.900*%
G04:AMPARAMS|DCode=43|XSize=1.05mm|YSize=1.25mm|CornerRadius=0.525mm|HoleSize=0mm|Usage=FLASHONLY|Rotation=180.000|XOffset=0mm|YOffset=0mm|HoleType=Round|Shape=RoundedRectangle|*
%AMROUNDEDRECTD43*
21,1,1.050,0.200,0,0,180.0*
21,1,0.000,1.250,0,0,180.0*
1,1,1.050,0.000,0.100*
1,1,1.050,0.000,0.100*
1,1,1.050,0.000,-0.100*
1,1,1.050,0.000,-0.100*
%
%ADD43ROUNDEDRECTD43*%
G04:AMPARAMS|DCode=44|XSize=2.1mm|YSize=1.9mm|CornerRadius=0.494mm|HoleSize=0mm|Usage=FLASHONLY|Rotation=180.000|XOffset=0mm|YOffset=0mm|HoleType=Round|Shape=RoundedRectangle|*
%AMROUNDEDRECTD44*
21,1,2.100,0.912,0,0,180.0*
21,1,1.112,1.900,0,0,180.0*
1,1,0.988,-0.556,0.456*
1,1,0.988,0.556,0.456*
1,1,0.988,0.556,-0.456*
1,1,0.988,-0.556,-0.456*
%
%ADD44ROUNDEDRECTD44*%
%ADD45R,1.700X1.700*%
%ADD46C,1.700*%
%ADD47R,1.700X1.700*%
%ADD48O,0.800X1.100*%
%ADD49C,1.524*%
%ADD50C,3.600*%
%ADD51C,0.550*%
%ADD52C,1.016*%
%ADD53O,1.250X1.450*%
%ADD54O,1.425X2.100*%
%ADD55C,1.600*%
G04:AMPARAMS|DCode=56|XSize=2.524mm|YSize=2.524mm|CornerRadius=0mm|HoleSize=0mm|Usage=FLASHONLY|Rotation=0.000|XOffset=0mm|YOffset=0mm|HoleType=Round|Shape=Relief|Width=0.254mm|Gap=0.254mm|Entries=4|*
%AMTHD56*
7,0,0,2.524,2.016,0.254,45*
%
%ADD56THD56*%
%ADD57C,1.250*%
G04:AMPARAMS|DCode=58|XSize=2.174mm|YSize=2.174mm|CornerRadius=0mm|HoleSize=0mm|Usage=FLASHONLY|Rotation=0.000|XOffset=0mm|YOffset=0mm|HoleType=Round|Shape=Relief|Width=0.254mm|Gap=0.254mm|Entries=4|*
%AMTHD58*
7,0,0,2.174,1.666,0.254,45*
%
%ADD58THD58*%
%ADD59C,0.850*%
%ADD60C,3.300*%
%ADD61C,0.800*%
%ADD62C,0.254*%
%ADD63C,0.250*%
%ADD64C,0.050*%
%ADD65C,0.100*%
%ADD66R,3.248X0.599*%
%ADD67R,2.100X2.100*%
%ADD68O,0.750X1.100*%
%ADD69R,1.300X1.400*%
%ADD70R,0.900X0.510*%
%ADD71R,1.250X1.500*%
%ADD72R,1.100X1.050*%
%ADD73R,0.500X1.450*%
%ADD74R,1.100X2.350*%
%ADD75R,0.400X0.950*%
%ADD76R,0.950X0.400*%
%ADD77R,5.300X5.300*%
%ADD78O,0.750X0.350*%
%ADD79O,0.350X0.750*%
%ADD80R,3.400X3.400*%
%ADD81R,1.150X0.750*%
%ADD82R,1.400X0.700*%
%ADD83R,1.300X1.300*%
%ADD84R,1.300X1.450*%
%ADD85R,0.900X0.750*%
%ADD86R,0.600X0.700*%
%ADD87R,1.050X1.100*%
%ADD88R,0.700X1.000*%
%ADD89R,0.750X0.900*%
%ADD90R,1.000X0.700*%
%ADD91R,1.900X2.000*%
G04:AMPARAMS|DCode=92|XSize=1.15mm|YSize=1.35mm|CornerRadius=0.575mm|HoleSize=0mm|Usage=FLASHONLY|Rotation=180.000|XOffset=0mm|YOffset=0mm|HoleType=Round|Shape=RoundedRectangle|*
%AMROUNDEDRECTD92*
21,1,1.150,0.200,0,0,180.0*
21,1,0.000,1.350,0,0,180.0*
1,1,1.150,0.000,0.100*
1,1,1.150,0.000,0.100*
1,1,1.150,0.000,-0.100*
1,1,1.150,0.000,-0.100*
%
%ADD92ROUNDEDRECTD92*%
G04:AMPARAMS|DCode=93|XSize=2.2mm|YSize=2mm|CornerRadius=0.544mm|HoleSize=0mm|Usage=FLASHONLY|Rotation=180.000|XOffset=0mm|YOffset=0mm|HoleType=Round|Shape=RoundedRectangle|*
%AMROUNDEDRECTD93*
21,1,2.200,0.912,0,0,180.0*
21,1,1.112,2.000,0,0,180.0*
1,1,1.088,-0.556,0.456*
1,1,1.088,0.556,0.456*
1,1,1.088,0.556,-0.456*
1,1,1.088,-0.556,-0.456*
%
%ADD93ROUNDEDRECTD93*%
%ADD94R,1.800X1.800*%
%ADD95C,1.800*%
%ADD96R,1.800X1.800*%
%ADD97O,0.900X1.200*%
%ADD98C,1.624*%
%ADD99C,3.700*%
%ADD100C,0.650*%
G36*
X32655Y42055D02*
X32657Y42055D01*
X32826Y42033D01*
X32828Y42033D01*
X32829Y42033D01*
X32833Y42032D01*
X32836Y42031D01*
X32837Y42030D01*
X32839Y42030D01*
X32997Y41964D01*
X32998Y41963D01*
X33000Y41963D01*
X33003Y41961D01*
X33006Y41960D01*
X33007Y41958D01*
X33008Y41958D01*
X33144Y41853D01*
X33145Y41852D01*
X33147Y41851D01*
X33149Y41849D01*
X33151Y41847D01*
X33152Y41845D01*
X33153Y41844D01*
X33258Y41708D01*
X33258Y41707D01*
X33260Y41706D01*
X33261Y41703D01*
X33263Y41700D01*
X33263Y41698D01*
X33264Y41697D01*
X33330Y41539D01*
X33330Y41537D01*
X33331Y41536D01*
X33332Y41533D01*
X33333Y41529D01*
X33333Y41528D01*
X33333Y41526D01*
X33355Y41357D01*
X33356Y41353D01*
X33356Y41350D01*
X33356Y41348D01*
X33356Y41347D01*
X33355Y41343D01*
X33355Y41340D01*
X33354Y41339D01*
X33354Y41337D01*
X33353Y41334D01*
X33352Y41331D01*
X33351Y41329D01*
X33351Y41328D01*
X33349Y41325D01*
X33347Y41322D01*
X33346Y41321D01*
X33345Y41319D01*
X33343Y41317D01*
X33341Y41314D01*
X33340Y41313D01*
X33339Y41312D01*
X33336Y41310D01*
X33334Y41308D01*
X33332Y41307D01*
X33331Y41306D01*
X33328Y41305D01*
X33325Y41304D01*
X33323Y41303D01*
X33322Y41302D01*
X33319Y41302D01*
X33315Y41301D01*
X33314Y41301D01*
X33312Y41300D01*
X33309Y41300D01*
X33306Y41300D01*
X31994D01*
X31991Y41300D01*
X31988Y41300D01*
X31986Y41301D01*
X31985Y41301D01*
X31981Y41302D01*
X31978Y41302D01*
X31977Y41303D01*
X31975Y41304D01*
X31972Y41305D01*
X31969Y41306D01*
X31968Y41307D01*
X31966Y41308D01*
X31964Y41310D01*
X31961Y41312D01*
X31960Y41313D01*
X31959Y41314D01*
X31957Y41317D01*
X31955Y41319D01*
X31954Y41321D01*
X31953Y41322D01*
X31951Y41325D01*
X31949Y41328D01*
X31949Y41329D01*
X31948Y41331D01*
X31947Y41334D01*
X31946Y41337D01*
X31946Y41339D01*
X31945Y41340D01*
X31945Y41343D01*
X31944Y41347D01*
X31944Y41348D01*
X31944Y41350D01*
X31944Y41353D01*
X31945Y41357D01*
X31967Y41526D01*
X31967Y41528D01*
X31967Y41529D01*
X31968Y41533D01*
X31969Y41536D01*
X31970Y41537D01*
X31970Y41539D01*
X32036Y41697D01*
X32037Y41698D01*
X32037Y41700D01*
X32039Y41703D01*
X32040Y41706D01*
X32041Y41707D01*
X32042Y41708D01*
X32147Y41844D01*
X32148Y41845D01*
X32149Y41847D01*
X32151Y41849D01*
X32153Y41851D01*
X32155Y41852D01*
X32156Y41853D01*
X32292Y41958D01*
X32293Y41958D01*
X32294Y41960D01*
X32297Y41961D01*
X32300Y41963D01*
X32302Y41963D01*
X32303Y41964D01*
X32461Y42030D01*
X32463Y42030D01*
X32464Y42031D01*
X32467Y42032D01*
X32471Y42033D01*
X32472Y42033D01*
X32474Y42033D01*
X32643Y42055D01*
X32645Y42055D01*
X32647Y42056D01*
X32650Y42056D01*
X32653Y42056D01*
X32655Y42055D01*
D02*
G37*
G36*
X33309Y41000D02*
X33312Y41000D01*
X33314Y40999D01*
X33315Y40999D01*
X33319Y40998D01*
X33322Y40998D01*
X33323Y40997D01*
X33325Y40996D01*
X33328Y40995D01*
X33331Y40994D01*
X33332Y40993D01*
X33334Y40992D01*
X33336Y40990D01*
X33339Y40988D01*
X33340Y40987D01*
X33341Y40986D01*
X33343Y40983D01*
X33345Y40981D01*
X33346Y40979D01*
X33347Y40978D01*
X33349Y40975D01*
X33351Y40972D01*
X33351Y40971D01*
X33352Y40969D01*
X33353Y40966D01*
X33354Y40963D01*
X33354Y40961D01*
X33355Y40960D01*
X33355Y40957D01*
X33356Y40953D01*
X33356Y40952D01*
X33356Y40950D01*
X33356Y40947D01*
X33355Y40943D01*
X33333Y40774D01*
X33333Y40772D01*
X33333Y40771D01*
X33332Y40767D01*
X33331Y40764D01*
X33330Y40763D01*
X33330Y40761D01*
X33264Y40603D01*
X33263Y40602D01*
X33263Y40600D01*
X33261Y40597D01*
X33260Y40594D01*
X33258Y40593D01*
X33258Y40592D01*
X33153Y40456D01*
X33152Y40455D01*
X33151Y40453D01*
X33149Y40451D01*
X33147Y40449D01*
X33145Y40448D01*
X33144Y40447D01*
X33008Y40342D01*
X33007Y40341D01*
X33006Y40340D01*
X33003Y40339D01*
X33000Y40337D01*
X32998Y40337D01*
X32997Y40336D01*
X32839Y40270D01*
X32837Y40270D01*
X32836Y40269D01*
X32833Y40268D01*
X32829Y40267D01*
X32828Y40267D01*
X32826Y40267D01*
X32657Y40245D01*
X32655Y40245D01*
X32653Y40244D01*
X32650Y40244D01*
X32647Y40244D01*
X32645Y40245D01*
X32643Y40245D01*
X32474Y40267D01*
X32472Y40267D01*
X32471Y40267D01*
X32467Y40268D01*
X32464Y40269D01*
X32463Y40270D01*
X32461Y40270D01*
X32303Y40336D01*
X32302Y40337D01*
X32300Y40337D01*
X32297Y40339D01*
X32294Y40340D01*
X32293Y40341D01*
X32292Y40342D01*
X32156Y40447D01*
X32155Y40448D01*
X32153Y40449D01*
X32151Y40451D01*
X32149Y40453D01*
X32148Y40455D01*
X32147Y40456D01*
X32042Y40592D01*
X32042Y40593D01*
X32040Y40594D01*
X32039Y40597D01*
X32037Y40600D01*
X32037Y40602D01*
X32036Y40603D01*
X31970Y40761D01*
X31970Y40763D01*
X31969Y40764D01*
X31968Y40767D01*
X31967Y40771D01*
X31967Y40772D01*
X31967Y40774D01*
X31945Y40943D01*
X31944Y40947D01*
X31944Y40950D01*
X31944Y40952D01*
X31944Y40953D01*
X31945Y40957D01*
X31945Y40960D01*
X31946Y40961D01*
X31946Y40963D01*
X31947Y40966D01*
X31948Y40969D01*
X31949Y40971D01*
X31949Y40972D01*
X31951Y40975D01*
X31953Y40978D01*
X31954Y40979D01*
X31955Y40981D01*
X31957Y40983D01*
X31959Y40986D01*
X31960Y40987D01*
X31961Y40988D01*
X31964Y40990D01*
X31966Y40992D01*
X31968Y40993D01*
X31969Y40994D01*
X31972Y40995D01*
X31975Y40996D01*
X31977Y40997D01*
X31978Y40998D01*
X31981Y40998D01*
X31985Y40999D01*
X31986Y40999D01*
X31988Y41000D01*
X31991Y41000D01*
X31994Y41000D01*
X33306D01*
X33309Y41000D01*
D02*
G37*
G36*
X27410Y74374D02*
X27419Y74371D01*
X27428Y74367D01*
X27436Y74361D01*
X27442Y74353D01*
X27446Y74344D01*
X27449Y74335D01*
X27450Y74325D01*
Y72425D01*
X27449Y72415D01*
X27446Y72406D01*
X27442Y72397D01*
X27436Y72389D01*
X27428Y72383D01*
X27419Y72379D01*
X27410Y72376D01*
X27400Y72375D01*
X25800D01*
X25798Y72375D01*
X25796Y72375D01*
X25748Y72379D01*
X25747Y72379D01*
X25745Y72379D01*
X25692Y72386D01*
X25689Y72387D01*
X25685Y72388D01*
X25632Y72403D01*
X25630Y72403D01*
X25628Y72404D01*
X25585Y72420D01*
X25583Y72421D01*
X25581Y72422D01*
X25539Y72442D01*
X25537Y72443D01*
X25534Y72445D01*
X25490Y72473D01*
X25488Y72474D01*
X25487Y72475D01*
X25449Y72504D01*
X25447Y72505D01*
X25446Y72506D01*
X25407Y72540D01*
X25404Y72543D01*
X25401Y72546D01*
X25372Y72582D01*
X25371Y72583D01*
X25371Y72584D01*
X25343Y72621D01*
X25341Y72623D01*
X25340Y72626D01*
X25316Y72667D01*
X25315Y72669D01*
X25314Y72670D01*
X25294Y72712D01*
X25293Y72714D01*
X25292Y72716D01*
X25276Y72758D01*
X25275Y72761D01*
X25274Y72764D01*
X25262Y72815D01*
X25262Y72817D01*
X25261Y72819D01*
X25254Y72864D01*
X25254Y72866D01*
X25254Y72868D01*
X25250Y72921D01*
X25250Y72923D01*
X25250Y72925D01*
Y73825D01*
X25250Y73827D01*
X25250Y73829D01*
X25254Y73884D01*
X25254Y73886D01*
X25255Y73889D01*
X25263Y73934D01*
X25263Y73935D01*
X25263Y73937D01*
X25275Y73987D01*
X25276Y73990D01*
X25277Y73994D01*
X25293Y74034D01*
X25306Y74066D01*
X25308Y74070D01*
X25310Y74073D01*
X25335Y74116D01*
X25336Y74118D01*
X25337Y74120D01*
X25363Y74157D01*
X25364Y74158D01*
X25365Y74160D01*
X25396Y74198D01*
X25399Y74200D01*
X25401Y74203D01*
X25446Y74244D01*
X25448Y74246D01*
X25450Y74247D01*
X25490Y74277D01*
X25492Y74278D01*
X25493Y74280D01*
X25539Y74309D01*
X25542Y74310D01*
X25545Y74312D01*
X25598Y74336D01*
X25601Y74337D01*
X25605Y74338D01*
X25692Y74364D01*
X25697Y74365D01*
X25701Y74366D01*
X25701Y74366D01*
X25701Y74366D01*
X25701D01*
X25795Y74375D01*
X25798Y74375D01*
X25800Y74375D01*
X27400D01*
X27410Y74374D01*
D02*
G37*
G36*
X34202Y74375D02*
X34204Y74375D01*
X34252Y74371D01*
X34253Y74371D01*
X34255Y74371D01*
X34308Y74364D01*
X34311Y74363D01*
X34315Y74362D01*
X34368Y74347D01*
X34370Y74347D01*
X34372Y74346D01*
X34415Y74330D01*
X34417Y74329D01*
X34419Y74328D01*
X34461Y74308D01*
X34463Y74307D01*
X34466Y74305D01*
X34510Y74277D01*
X34512Y74276D01*
X34513Y74275D01*
X34551Y74246D01*
X34553Y74245D01*
X34554Y74244D01*
X34593Y74210D01*
X34596Y74207D01*
X34599Y74204D01*
X34628Y74168D01*
X34629Y74167D01*
X34629Y74166D01*
X34657Y74129D01*
X34659Y74127D01*
X34660Y74124D01*
X34684Y74083D01*
X34685Y74081D01*
X34686Y74080D01*
X34706Y74038D01*
X34707Y74036D01*
X34708Y74034D01*
X34724Y73992D01*
X34725Y73989D01*
X34726Y73986D01*
X34738Y73935D01*
X34738Y73933D01*
X34739Y73931D01*
X34746Y73886D01*
X34746Y73884D01*
X34746Y73882D01*
X34750Y73829D01*
X34750Y73827D01*
X34750Y73825D01*
Y72925D01*
X34750Y72923D01*
X34750Y72921D01*
X34746Y72866D01*
X34746Y72864D01*
X34745Y72861D01*
X34737Y72816D01*
X34737Y72815D01*
X34737Y72813D01*
X34725Y72763D01*
X34724Y72760D01*
X34723Y72756D01*
X34707Y72716D01*
X34694Y72684D01*
X34692Y72680D01*
X34690Y72677D01*
X34665Y72634D01*
X34664Y72632D01*
X34663Y72630D01*
X34637Y72593D01*
X34636Y72592D01*
X34635Y72590D01*
X34604Y72552D01*
X34601Y72550D01*
X34599Y72547D01*
X34554Y72506D01*
X34552Y72504D01*
X34550Y72503D01*
X34510Y72473D01*
X34508Y72472D01*
X34507Y72470D01*
X34461Y72441D01*
X34458Y72440D01*
X34455Y72438D01*
X34402Y72414D01*
X34399Y72413D01*
X34395Y72412D01*
X34308Y72386D01*
X34303Y72385D01*
X34299Y72384D01*
X34299Y72384D01*
X34299Y72384D01*
X34299D01*
X34205Y72375D01*
X34202Y72375D01*
X34200Y72375D01*
X32600D01*
X32590Y72376D01*
X32581Y72379D01*
X32572Y72383D01*
X32564Y72389D01*
X32558Y72397D01*
X32554Y72406D01*
X32551Y72415D01*
X32550Y72425D01*
Y74325D01*
X32551Y74335D01*
X32554Y74344D01*
X32558Y74353D01*
X32564Y74361D01*
X32572Y74367D01*
X32581Y74371D01*
X32590Y74374D01*
X32600Y74375D01*
X34200D01*
X34202Y74375D01*
D02*
G37*
D70*
X21600Y48405D02*
D03*
D71*
X20200Y44300D02*
D03*
Y46500D02*
D03*
X21800D02*
D03*
Y44300D02*
D03*
D72*
X22450Y48400D02*
D03*
X20750D02*
D03*
X30030Y59714D02*
D03*
X28430D02*
D03*
D73*
X28700Y70700D02*
D03*
X29350D02*
D03*
X30000D02*
D03*
X30650D02*
D03*
X31300D02*
D03*
D74*
X20125Y2525D02*
D03*
Y8025D02*
D03*
X24125D02*
D03*
Y2525D02*
D03*
D75*
X32000Y50025D02*
D03*
X31500D02*
D03*
X30000D02*
D03*
X29500D02*
D03*
X29000D02*
D03*
X28500D02*
D03*
X27000Y43175D02*
D03*
X27500D02*
D03*
X28000D02*
D03*
X28500D02*
D03*
X29000D02*
D03*
X29500D02*
D03*
X30000D02*
D03*
X30500D02*
D03*
X31000D02*
D03*
X31500D02*
D03*
X32000D02*
D03*
X31000Y50025D02*
D03*
X30500D02*
D03*
X28000D02*
D03*
X27500D02*
D03*
X27000D02*
D03*
D76*
X26075Y49100D02*
D03*
Y48600D02*
D03*
Y48100D02*
D03*
Y47600D02*
D03*
Y47100D02*
D03*
Y46600D02*
D03*
Y46100D02*
D03*
Y45600D02*
D03*
Y45100D02*
D03*
Y44600D02*
D03*
Y44100D02*
D03*
X32925D02*
D03*
Y44600D02*
D03*
Y47100D02*
D03*
Y47600D02*
D03*
Y48100D02*
D03*
Y48600D02*
D03*
Y49100D02*
D03*
Y46600D02*
D03*
Y45600D02*
D03*
Y45100D02*
D03*
Y46100D02*
D03*
D77*
X29500Y46600D02*
D03*
D78*
X33225Y19950D02*
D03*
Y20450D02*
D03*
Y20950D02*
D03*
Y21450D02*
D03*
Y21950D02*
D03*
Y22450D02*
D03*
Y22950D02*
D03*
Y23450D02*
D03*
X28175D02*
D03*
Y22950D02*
D03*
Y22450D02*
D03*
Y21950D02*
D03*
Y21450D02*
D03*
Y20950D02*
D03*
Y20450D02*
D03*
Y19950D02*
D03*
D79*
X32450Y24225D02*
D03*
X31950D02*
D03*
X31450D02*
D03*
X30950D02*
D03*
X30450D02*
D03*
X29950D02*
D03*
X29450D02*
D03*
X28950D02*
D03*
Y19175D02*
D03*
X29450D02*
D03*
X29950D02*
D03*
X30450D02*
D03*
X30950D02*
D03*
X31450D02*
D03*
X31950D02*
D03*
X32450D02*
D03*
D80*
X30700Y21700D02*
D03*
D81*
X28468Y62431D02*
D03*
Y64337D02*
D03*
X30918D02*
D03*
Y63384D02*
D03*
Y62431D02*
D03*
D82*
X24985Y38170D02*
D03*
Y40070D02*
D03*
X22885Y39120D02*
D03*
Y36570D02*
D03*
Y34670D02*
D03*
X24985Y35620D02*
D03*
D83*
X32800Y1775D02*
D03*
X30700D02*
D03*
X29275Y36750D02*
D03*
X27175D02*
D03*
D84*
X32450Y68500D02*
D03*
X34350D02*
D03*
D85*
X11600Y54150D02*
D03*
X12800D02*
D03*
X34350Y42200D02*
D03*
X35550D02*
D03*
X22850Y10300D02*
D03*
X24050D02*
D03*
X22250Y50975D02*
D03*
X23450D02*
D03*
X35558Y51158D02*
D03*
X36758D02*
D03*
X35558Y52308D02*
D03*
X36758D02*
D03*
X35558Y53458D02*
D03*
X36758D02*
D03*
X35558Y50008D02*
D03*
X36758D02*
D03*
D86*
X23475Y46900D02*
D03*
X23475Y45850D02*
D03*
X23475Y44775D02*
D03*
X23475Y43725D02*
D03*
D87*
X32436Y63981D02*
D03*
Y62381D02*
D03*
D88*
X26458Y68876D02*
D03*
Y67776D02*
D03*
X34225Y49575D02*
D03*
Y48475D02*
D03*
X34250Y44600D02*
D03*
Y43500D02*
D03*
X28950Y52200D02*
D03*
Y53300D02*
D03*
X24775Y47600D02*
D03*
Y48700D02*
D03*
D89*
X18875Y34325D02*
D03*
Y35525D02*
D03*
X29800Y38500D02*
D03*
Y39700D02*
D03*
X31300Y38500D02*
D03*
Y39700D02*
D03*
X19625Y41150D02*
D03*
Y39950D02*
D03*
X20875Y41900D02*
D03*
Y40700D02*
D03*
X34500Y62500D02*
D03*
Y63700D02*
D03*
X31350Y53350D02*
D03*
Y52150D02*
D03*
X30200Y53350D02*
D03*
Y52150D02*
D03*
X27025Y6200D02*
D03*
Y7400D02*
D03*
X26625Y40025D02*
D03*
Y38825D02*
D03*
X21375Y36375D02*
D03*
Y37575D02*
D03*
X34417Y2632D02*
D03*
Y1432D02*
D03*
X25500Y63700D02*
D03*
Y62500D02*
D03*
X25315Y67726D02*
D03*
Y68926D02*
D03*
D90*
X20300Y10300D02*
D03*
X21400D02*
D03*
X25700Y21775D02*
D03*
X26800D02*
D03*
X23400Y49800D02*
D03*
X22300D02*
D03*
X27500Y41875D02*
D03*
X26400D02*
D03*
X35025Y21200D02*
D03*
X36125D02*
D03*
X35025Y22400D02*
D03*
X36125D02*
D03*
X26800Y22950D02*
D03*
X25700D02*
D03*
X29430Y65746D02*
D03*
X28330D02*
D03*
D91*
X31150Y73375D02*
D03*
X28850D02*
D03*
D92*
X27575Y70375D02*
D03*
X32425D02*
D03*
D93*
X33650Y73375D02*
D03*
X26350D02*
D03*
D94*
X6350Y20320D02*
D03*
Y17780D02*
D03*
Y12700D02*
D03*
Y15240D02*
D03*
Y7620D02*
D03*
Y10160D02*
D03*
X54610Y7620D02*
D03*
Y10160D02*
D03*
Y15240D02*
D03*
Y12700D02*
D03*
Y22860D02*
D03*
Y25400D02*
D03*
Y20320D02*
D03*
Y17780D02*
D03*
Y39624D02*
D03*
Y42164D02*
D03*
Y47244D02*
D03*
Y44704D02*
D03*
Y34544D02*
D03*
Y37084D02*
D03*
Y32004D02*
D03*
Y29464D02*
D03*
Y49784D02*
D03*
Y52324D02*
D03*
X16510Y48260D02*
D03*
X6350Y43180D02*
D03*
Y40640D02*
D03*
Y35560D02*
D03*
Y38100D02*
D03*
Y27940D02*
D03*
Y25400D02*
D03*
Y30480D02*
D03*
Y33020D02*
D03*
D95*
X8510Y57500D02*
D03*
X11050D02*
D03*
X16510Y50800D02*
D03*
X34240Y4940D02*
D03*
X31700D02*
D03*
X29160D02*
D03*
X31700Y7480D02*
D03*
X29160D02*
D03*
X34235Y57500D02*
D03*
X36775D02*
D03*
D96*
X13590Y57500D02*
D03*
X34240Y7480D02*
D03*
X39315Y57500D02*
D03*
D97*
X50800Y56515D02*
D03*
Y57785D02*
D03*
X45720D02*
D03*
X46990D02*
D03*
X48260D02*
D03*
X49530D02*
D03*
Y56515D02*
D03*
X48260D02*
D03*
X46990D02*
D03*
X45720D02*
D03*
D98*
X31500Y36550D02*
D03*
X39370Y30480D02*
D03*
Y33020D02*
D03*
X16510Y2540D02*
D03*
Y5080D02*
D03*
X13970Y2540D02*
D03*
Y5080D02*
D03*
X8890Y2540D02*
D03*
X11430Y5080D02*
D03*
Y2540D02*
D03*
X8890Y5080D02*
D03*
X44450D02*
D03*
X46990D02*
D03*
X49530D02*
D03*
X52070D02*
D03*
Y2540D02*
D03*
X49530D02*
D03*
X46990D02*
D03*
X44450D02*
D03*
X41910D02*
D03*
Y5080D02*
D03*
Y50800D02*
D03*
Y40640D02*
D03*
Y43180D02*
D03*
Y45720D02*
D03*
Y48260D02*
D03*
Y30480D02*
D03*
Y33020D02*
D03*
Y35560D02*
D03*
Y38100D02*
D03*
Y20320D02*
D03*
Y22860D02*
D03*
Y25400D02*
D03*
Y27940D02*
D03*
Y17780D02*
D03*
Y15240D02*
D03*
Y12700D02*
D03*
Y10160D02*
D03*
Y7620D02*
D03*
X44450D02*
D03*
X46990D02*
D03*
X49530D02*
D03*
X52070D02*
D03*
Y10160D02*
D03*
X49530D02*
D03*
X46990D02*
D03*
X44450D02*
D03*
X52070Y12700D02*
D03*
X49530D02*
D03*
X46990D02*
D03*
X44450D02*
D03*
X52070Y15240D02*
D03*
X49530D02*
D03*
X46990D02*
D03*
X44450D02*
D03*
X52070Y17780D02*
D03*
X49530D02*
D03*
X46990D02*
D03*
X44450D02*
D03*
Y27940D02*
D03*
X46990D02*
D03*
X49530D02*
D03*
X52070D02*
D03*
X44450Y25400D02*
D03*
X46990D02*
D03*
X49530D02*
D03*
X52070D02*
D03*
X44450Y22860D02*
D03*
X46990D02*
D03*
X49530D02*
D03*
X52070D02*
D03*
X44450Y20320D02*
D03*
X46990D02*
D03*
X49530D02*
D03*
X52070D02*
D03*
X44450Y38100D02*
D03*
X46990D02*
D03*
X49530D02*
D03*
X52070D02*
D03*
X44450Y35560D02*
D03*
X46990D02*
D03*
X49530D02*
D03*
X52070D02*
D03*
X44450Y33020D02*
D03*
X46990D02*
D03*
X49530D02*
D03*
X52070D02*
D03*
X44450Y30480D02*
D03*
X46990D02*
D03*
X49530D02*
D03*
X52070D02*
D03*
X44450Y48260D02*
D03*
X46990D02*
D03*
X49530D02*
D03*
X52070D02*
D03*
X44450Y45720D02*
D03*
X46990D02*
D03*
X49530D02*
D03*
X52070D02*
D03*
X44450Y43180D02*
D03*
X46990D02*
D03*
X49530D02*
D03*
X52070D02*
D03*
X44450Y40640D02*
D03*
X46990D02*
D03*
X49530D02*
D03*
X52070D02*
D03*
Y50800D02*
D03*
X49530D02*
D03*
X46990D02*
D03*
X44450D02*
D03*
X3810Y7620D02*
D03*
Y10160D02*
D03*
Y12700D02*
D03*
Y15240D02*
D03*
Y17780D02*
D03*
Y27940D02*
D03*
Y25400D02*
D03*
Y22860D02*
D03*
Y20320D02*
D03*
Y38100D02*
D03*
Y35560D02*
D03*
Y33020D02*
D03*
Y30480D02*
D03*
Y48260D02*
D03*
Y45720D02*
D03*
Y43180D02*
D03*
Y40640D02*
D03*
Y50800D02*
D03*
X6350D02*
D03*
Y48260D02*
D03*
X8890Y10160D02*
D03*
Y15240D02*
D03*
Y17780D02*
D03*
Y27940D02*
D03*
Y25400D02*
D03*
Y22860D02*
D03*
Y20320D02*
D03*
Y38100D02*
D03*
Y35560D02*
D03*
Y33020D02*
D03*
Y30480D02*
D03*
Y48260D02*
D03*
Y45720D02*
D03*
Y43180D02*
D03*
Y40640D02*
D03*
Y50800D02*
D03*
X11430Y7620D02*
D03*
Y10160D02*
D03*
Y12700D02*
D03*
Y15240D02*
D03*
Y17780D02*
D03*
Y27940D02*
D03*
Y25400D02*
D03*
Y22860D02*
D03*
Y20320D02*
D03*
Y38100D02*
D03*
Y35560D02*
D03*
Y33020D02*
D03*
Y30480D02*
D03*
Y48260D02*
D03*
Y45720D02*
D03*
Y43180D02*
D03*
Y40640D02*
D03*
Y50800D02*
D03*
X57150Y7620D02*
D03*
Y10160D02*
D03*
Y12700D02*
D03*
Y15240D02*
D03*
Y17780D02*
D03*
Y27940D02*
D03*
Y25400D02*
D03*
Y22860D02*
D03*
Y20320D02*
D03*
Y38100D02*
D03*
Y35560D02*
D03*
Y33020D02*
D03*
Y30480D02*
D03*
Y48260D02*
D03*
Y45720D02*
D03*
Y43180D02*
D03*
Y40640D02*
D03*
Y50800D02*
D03*
X8890Y7620D02*
D03*
Y12700D02*
D03*
X6350Y45720D02*
D03*
Y22860D02*
D03*
X13970Y50800D02*
D03*
Y40640D02*
D03*
Y43180D02*
D03*
Y45720D02*
D03*
Y48260D02*
D03*
Y30480D02*
D03*
Y33020D02*
D03*
Y35560D02*
D03*
Y38100D02*
D03*
Y20320D02*
D03*
Y22860D02*
D03*
Y25400D02*
D03*
Y27940D02*
D03*
Y17780D02*
D03*
Y15240D02*
D03*
Y12700D02*
D03*
Y10160D02*
D03*
Y7620D02*
D03*
X16510Y45720D02*
D03*
Y35560D02*
D03*
Y38100D02*
D03*
Y40640D02*
D03*
Y43180D02*
D03*
Y25400D02*
D03*
Y27940D02*
D03*
Y30480D02*
D03*
Y33020D02*
D03*
Y15240D02*
D03*
Y17780D02*
D03*
Y20320D02*
D03*
Y22860D02*
D03*
Y12700D02*
D03*
Y10160D02*
D03*
Y7620D02*
D03*
D99*
X2350Y57650D02*
D03*
X57650D02*
D03*
X2350Y2350D02*
D03*
X57650D02*
D03*
D100*
X31700Y45500D02*
D03*
X30600Y48800D02*
D03*
Y46600D02*
D03*
Y44400D02*
D03*
X29500Y47700D02*
D03*
Y45500D02*
D03*
X28400Y48800D02*
D03*
Y46600D02*
D03*
Y44400D02*
D03*
X27300Y47700D02*
D03*
Y45500D02*
D03*
X31700Y47700D02*
D03*
X29972Y20828D02*
D03*
Y22352D02*
D03*
X31496D02*
D03*
Y20828D02*
D03*
M02*
