%FSLAX43Y43*%
%MOMM*%
G71*
G01*
G75*
G04 Layer_Physical_Order=2*
G04 Layer_Color=32768*
%ADD10C,0.175*%
%ADD11C,0.200*%
%ADD12C,0.300*%
%ADD13C,0.175*%
%ADD14C,0.200*%
%ADD15C,0.300*%
%ADD16C,0.180*%
%ADD17C,0.400*%
%ADD18R,1.150X1.400*%
%ADD19R,1.000X0.950*%
%ADD20C,0.400*%
%ADD21R,0.400X1.350*%
%ADD22R,1.000X2.250*%
%ADD23R,0.300X0.850*%
%ADD24R,0.850X0.300*%
%ADD25R,5.200X5.200*%
%ADD26O,0.650X0.250*%
%ADD27O,0.250X0.650*%
%ADD28R,3.300X3.300*%
%ADD29R,1.050X0.650*%
%ADD30R,1.300X0.600*%
%ADD31R,1.200X1.200*%
%ADD32R,1.200X1.350*%
%ADD33R,0.800X0.650*%
%ADD34R,0.500X0.600*%
%ADD35R,0.950X1.000*%
%ADD36R,0.600X0.900*%
%ADD37R,0.650X0.800*%
%ADD38R,0.900X0.600*%
%ADD39C,0.150*%
%ADD40C,0.500*%
%ADD41R,0.900X0.300*%
%ADD42R,1.800X1.900*%
G04:AMPARAMS|DCode=43|XSize=1.05mm|YSize=1.25mm|CornerRadius=0.525mm|HoleSize=0mm|Usage=FLASHONLY|Rotation=180.000|XOffset=0mm|YOffset=0mm|HoleType=Round|Shape=RoundedRectangle|*
%AMROUNDEDRECTD43*
21,1,1.050,0.200,0,0,180.0*
21,1,0.000,1.250,0,0,180.0*
1,1,1.050,0.000,0.100*
1,1,1.050,0.000,0.100*
1,1,1.050,0.000,-0.100*
1,1,1.050,0.000,-0.100*
%
%ADD43ROUNDEDRECTD43*%
G04:AMPARAMS|DCode=44|XSize=2.1mm|YSize=1.9mm|CornerRadius=0.494mm|HoleSize=0mm|Usage=FLASHONLY|Rotation=180.000|XOffset=0mm|YOffset=0mm|HoleType=Round|Shape=RoundedRectangle|*
%AMROUNDEDRECTD44*
21,1,2.100,0.912,0,0,180.0*
21,1,1.112,1.900,0,0,180.0*
1,1,0.988,-0.556,0.456*
1,1,0.988,0.556,0.456*
1,1,0.988,0.556,-0.456*
1,1,0.988,-0.556,-0.456*
%
%ADD44ROUNDEDRECTD44*%
%ADD45R,1.700X1.700*%
%ADD46C,1.700*%
%ADD47R,1.700X1.700*%
%ADD48O,0.800X1.100*%
%ADD49C,1.524*%
%ADD50C,3.600*%
%ADD51C,0.550*%
%ADD52C,1.016*%
%ADD53O,1.250X1.450*%
%ADD54O,1.425X2.100*%
%ADD55C,1.600*%
G04:AMPARAMS|DCode=56|XSize=2.524mm|YSize=2.524mm|CornerRadius=0mm|HoleSize=0mm|Usage=FLASHONLY|Rotation=0.000|XOffset=0mm|YOffset=0mm|HoleType=Round|Shape=Relief|Width=0.254mm|Gap=0.254mm|Entries=4|*
%AMTHD56*
7,0,0,2.524,2.016,0.254,45*
%
%ADD56THD56*%
%ADD57C,1.250*%
G04:AMPARAMS|DCode=58|XSize=2.174mm|YSize=2.174mm|CornerRadius=0mm|HoleSize=0mm|Usage=FLASHONLY|Rotation=0.000|XOffset=0mm|YOffset=0mm|HoleType=Round|Shape=Relief|Width=0.254mm|Gap=0.254mm|Entries=4|*
%AMTHD58*
7,0,0,2.174,1.666,0.254,45*
%
%ADD58THD58*%
%ADD59C,0.850*%
D52*
X0Y1000D02*
G03*
X1000Y0I1000J0D01*
G01*
X59000D02*
G03*
X60000Y1000I0J1000D01*
G01*
Y59000D02*
G03*
X59000Y60000I-1000J0D01*
G01*
X36000Y61000D02*
G03*
X37000Y60000I1000J0D01*
G01*
X36000Y74000D02*
G03*
X35000Y75000I-1000J0D01*
G01*
X25000D02*
G03*
X24000Y74000I0J-1000D01*
G01*
X23000Y60000D02*
G03*
X24000Y61000I0J1000D01*
G01*
X1000Y60000D02*
G03*
X0Y59000I0J-1000D01*
G01*
X1000Y0D02*
X59000D01*
X60000Y1000D02*
Y59000D01*
X37000Y60000D02*
X59000D01*
X36000Y61000D02*
X36000D01*
Y74000D01*
X25000Y75000D02*
X35000D01*
X24000Y61000D02*
Y74000D01*
X1000Y60000D02*
X23000D01*
X0Y1000D02*
Y59000D01*
D53*
X27575Y70375D02*
D03*
X32425D02*
D03*
D54*
X33512Y73375D02*
D03*
X26487D02*
D03*
D55*
X6350Y20320D02*
D03*
Y17780D02*
D03*
Y12700D02*
D03*
Y15240D02*
D03*
Y7620D02*
D03*
Y10160D02*
D03*
X54610Y7620D02*
D03*
Y10160D02*
D03*
Y15240D02*
D03*
Y12700D02*
D03*
Y22860D02*
D03*
Y25400D02*
D03*
Y20320D02*
D03*
Y17780D02*
D03*
Y39624D02*
D03*
Y42164D02*
D03*
Y47244D02*
D03*
Y34544D02*
D03*
Y37084D02*
D03*
Y32004D02*
D03*
Y29464D02*
D03*
Y49784D02*
D03*
Y52324D02*
D03*
X8510Y57500D02*
D03*
X11050D02*
D03*
X13590D02*
D03*
X16510Y48260D02*
D03*
Y50800D02*
D03*
X34240Y4940D02*
D03*
X31700D02*
D03*
X34240Y7480D02*
D03*
X31700D02*
D03*
X29160D02*
D03*
X6350Y43180D02*
D03*
Y40640D02*
D03*
Y35560D02*
D03*
Y38100D02*
D03*
Y25400D02*
D03*
Y33020D02*
D03*
X34235Y57500D02*
D03*
X36775D02*
D03*
X39315D02*
D03*
X31500Y36550D02*
D03*
X39370Y30480D02*
D03*
Y33020D02*
D03*
X16510Y2540D02*
D03*
X13970D02*
D03*
X8890D02*
D03*
X11430D02*
D03*
X52070D02*
D03*
X49530D02*
D03*
X46990D02*
D03*
X44450D02*
D03*
X41910D02*
D03*
Y50800D02*
D03*
Y40640D02*
D03*
Y43180D02*
D03*
Y45720D02*
D03*
Y48260D02*
D03*
Y30480D02*
D03*
Y33020D02*
D03*
Y35560D02*
D03*
Y38100D02*
D03*
Y20320D02*
D03*
Y22860D02*
D03*
Y25400D02*
D03*
Y27940D02*
D03*
Y17780D02*
D03*
Y15240D02*
D03*
Y12700D02*
D03*
Y10160D02*
D03*
Y7620D02*
D03*
X44450D02*
D03*
X46990D02*
D03*
X49530D02*
D03*
X52070D02*
D03*
Y10160D02*
D03*
X49530D02*
D03*
X46990D02*
D03*
X44450D02*
D03*
X52070Y12700D02*
D03*
X49530D02*
D03*
X46990D02*
D03*
X44450D02*
D03*
X52070Y15240D02*
D03*
X49530D02*
D03*
X46990D02*
D03*
X44450D02*
D03*
X52070Y17780D02*
D03*
X49530D02*
D03*
X46990D02*
D03*
X44450D02*
D03*
Y27940D02*
D03*
X46990D02*
D03*
X49530D02*
D03*
X52070D02*
D03*
X44450Y25400D02*
D03*
X46990D02*
D03*
X49530D02*
D03*
X52070D02*
D03*
X44450Y22860D02*
D03*
X46990D02*
D03*
X49530D02*
D03*
X52070D02*
D03*
X44450Y20320D02*
D03*
X46990D02*
D03*
X49530D02*
D03*
X52070D02*
D03*
X44450Y38100D02*
D03*
X46990D02*
D03*
X49530D02*
D03*
X52070D02*
D03*
X44450Y35560D02*
D03*
X46990D02*
D03*
X49530D02*
D03*
X52070D02*
D03*
X44450Y33020D02*
D03*
X46990D02*
D03*
X49530D02*
D03*
X52070D02*
D03*
X44450Y30480D02*
D03*
X46990D02*
D03*
X49530D02*
D03*
X52070D02*
D03*
X44450Y48260D02*
D03*
X46990D02*
D03*
X49530D02*
D03*
X52070D02*
D03*
X44450Y45720D02*
D03*
X46990D02*
D03*
X49530D02*
D03*
X52070D02*
D03*
X44450Y43180D02*
D03*
X46990D02*
D03*
X49530D02*
D03*
X52070D02*
D03*
X44450Y40640D02*
D03*
X46990D02*
D03*
X49530D02*
D03*
X52070D02*
D03*
Y50800D02*
D03*
X49530D02*
D03*
X46990D02*
D03*
X44450D02*
D03*
X3810Y7620D02*
D03*
Y10160D02*
D03*
Y12700D02*
D03*
Y15240D02*
D03*
Y17780D02*
D03*
Y25400D02*
D03*
Y22860D02*
D03*
Y20320D02*
D03*
Y38100D02*
D03*
Y35560D02*
D03*
Y33020D02*
D03*
Y48260D02*
D03*
Y45720D02*
D03*
Y43180D02*
D03*
Y40640D02*
D03*
Y50800D02*
D03*
X6350D02*
D03*
Y48260D02*
D03*
X8890Y10160D02*
D03*
Y15240D02*
D03*
Y17780D02*
D03*
Y27940D02*
D03*
Y25400D02*
D03*
Y22860D02*
D03*
Y20320D02*
D03*
Y38100D02*
D03*
Y35560D02*
D03*
Y33020D02*
D03*
Y30480D02*
D03*
Y48260D02*
D03*
Y45720D02*
D03*
Y43180D02*
D03*
Y40640D02*
D03*
Y50800D02*
D03*
X11430Y7620D02*
D03*
Y10160D02*
D03*
Y12700D02*
D03*
Y15240D02*
D03*
Y17780D02*
D03*
Y27940D02*
D03*
Y25400D02*
D03*
Y22860D02*
D03*
Y20320D02*
D03*
Y38100D02*
D03*
Y35560D02*
D03*
Y33020D02*
D03*
Y30480D02*
D03*
Y48260D02*
D03*
Y45720D02*
D03*
Y43180D02*
D03*
Y40640D02*
D03*
Y50800D02*
D03*
X57150Y7620D02*
D03*
Y10160D02*
D03*
Y12700D02*
D03*
Y15240D02*
D03*
Y17780D02*
D03*
Y27940D02*
D03*
Y25400D02*
D03*
Y22860D02*
D03*
Y20320D02*
D03*
Y38100D02*
D03*
Y35560D02*
D03*
Y33020D02*
D03*
Y30480D02*
D03*
Y48260D02*
D03*
Y45720D02*
D03*
Y40640D02*
D03*
Y50800D02*
D03*
X8890Y7620D02*
D03*
Y12700D02*
D03*
X6350Y45720D02*
D03*
Y22860D02*
D03*
X13970Y50800D02*
D03*
Y40640D02*
D03*
Y43180D02*
D03*
Y45720D02*
D03*
Y48260D02*
D03*
Y30480D02*
D03*
Y33020D02*
D03*
Y35560D02*
D03*
Y38100D02*
D03*
Y20320D02*
D03*
Y22860D02*
D03*
Y25400D02*
D03*
Y27940D02*
D03*
Y17780D02*
D03*
Y15240D02*
D03*
Y12700D02*
D03*
Y10160D02*
D03*
Y7620D02*
D03*
X16510Y45720D02*
D03*
Y35560D02*
D03*
Y38100D02*
D03*
Y40640D02*
D03*
Y43180D02*
D03*
Y25400D02*
D03*
Y27940D02*
D03*
Y30480D02*
D03*
Y33020D02*
D03*
Y15240D02*
D03*
Y17780D02*
D03*
Y20320D02*
D03*
Y22860D02*
D03*
Y12700D02*
D03*
Y10160D02*
D03*
Y7620D02*
D03*
D56*
X54610Y44704D02*
D03*
X29160Y4940D02*
D03*
X6350Y27940D02*
D03*
Y30480D02*
D03*
X16510Y5080D02*
D03*
X13970D02*
D03*
X11430D02*
D03*
X8890D02*
D03*
X44450D02*
D03*
X46990D02*
D03*
X49530D02*
D03*
X52070D02*
D03*
X41910D02*
D03*
X3810Y27940D02*
D03*
Y30480D02*
D03*
X57150Y43180D02*
D03*
D57*
X50800Y56515D02*
D03*
X46990Y57785D02*
D03*
X48260D02*
D03*
X49530D02*
D03*
Y56515D02*
D03*
X48260D02*
D03*
X46990D02*
D03*
X45720D02*
D03*
D58*
X50800Y57785D02*
D03*
X45720D02*
D03*
D59*
X25500Y64602D02*
D03*
X25000Y32850D02*
D03*
X28175Y53092D02*
D03*
X29275Y35446D02*
D03*
X25885Y36750D02*
D03*
X24985Y33600D02*
D03*
X22885Y35564D02*
D03*
X34350Y67275D02*
D03*
X30400Y54635D02*
D03*
X31150D02*
D03*
X29650Y68600D02*
D03*
X31000D02*
D03*
X26264Y24105D02*
D03*
X27076Y10033D02*
D03*
X28143Y24460D02*
D03*
X28583Y25142D02*
D03*
X30023Y14478D02*
D03*
X29972Y13665D02*
D03*
X23978Y24054D02*
D03*
Y21285D02*
D03*
X21311Y22536D02*
D03*
X20244Y23038D02*
D03*
X27878Y38825D02*
D03*
X27648Y52167D02*
D03*
X26075Y49640D02*
D03*
X22075Y15050D02*
D03*
X40336Y37084D02*
D03*
X33868Y37593D02*
D03*
X37475Y42125D02*
D03*
X36562Y45538D02*
D03*
X28700Y42200D02*
D03*
X36550Y24525D02*
D03*
X18046Y36875D02*
D03*
X40386Y39111D02*
D03*
X40850Y41900D02*
D03*
X36816Y39766D02*
D03*
X33075Y50300D02*
D03*
X30250Y16075D02*
D03*
X27500Y41021D02*
D03*
X29050Y26375D02*
D03*
X19766Y42650D02*
D03*
X18525Y41409D02*
D03*
X35615Y43500D02*
D03*
X35025Y20360D02*
D03*
X21050Y12750D02*
D03*
X27025Y4925D02*
D03*
X21659Y34670D02*
D03*
X33707Y24557D02*
D03*
X24540Y50975D02*
D03*
X24775Y49844D02*
D03*
X32512Y51712D02*
D03*
X33500Y14500D02*
D03*
X20875Y25400D02*
D03*
X32224Y13676D02*
D03*
X24235Y14475D02*
D03*
X25250Y13962D02*
D03*
X21071Y26579D02*
D03*
X25225Y10275D02*
D03*
X21275Y11350D02*
D03*
X19675Y23690D02*
D03*
X24926Y46027D02*
D03*
X25850Y43125D02*
D03*
X23975Y42875D02*
D03*
X33184Y42819D02*
D03*
X35450Y47425D02*
D03*
X35700Y46025D02*
D03*
X34150Y47425D02*
D03*
X37236Y47400D02*
D03*
X34098Y22464D02*
D03*
X27975Y39800D02*
D03*
X29850Y41500D02*
D03*
X35018Y33732D02*
D03*
X35275Y48975D02*
D03*
X22400Y57489D02*
D03*
X34500Y64603D02*
D03*
M02*
